<?xml version="1.0" encoding="utf-8"?>
<!-- Generator: Adobe Illustrator 16.0.0, SVG Export Plug-In . SVG Version: 6.00 Build 0)  -->
<!DOCTYPE svg PUBLIC "-//W3C//DTD SVG 1.1//EN" "http://www.w3.org/Graphics/SVG/1.1/DTD/svg11.dtd">
<svg version="1.1" id="Capa_1" xmlns="http://www.w3.org/2000/svg" xmlns:xlink="http://www.w3.org/1999/xlink" x="0px" y="0px"
	 width="595.28px" height="216.272px" viewBox="0 0 595.28 216.272" enable-background="new 0 0 595.28 216.272"
	 xml:space="preserve">
<g>
	<path fill="#FFFFFF" d="M542.721,5.586c-27.452,0-49.724,22.263-49.724,49.724s22.271,49.723,49.724,49.723
		c27.463,0,49.726-22.262,49.726-49.723S570.184,5.586,542.721,5.586z M556.107,43.978h-9.146v26.118c0,1.52,0.347,2.68,1.047,3.476
		c0.686,0.797,1.844,1.191,3.43,1.191h4.669v8.766c-0.766,0.257-1.651,0.499-2.673,0.716c-1.007,0.225-2.093,0.418-3.235,0.572
		c-1.152,0.161-2.19,0.241-3.148,0.241c-3.178,0-5.753-0.571-7.718-1.715c-1.964-1.142-3.396-2.688-4.29-4.619
		c-0.886-1.94-1.328-4.081-1.328-6.431V43.978h-6.197V33.788h6.665l2.486-14.294h10.293v14.294h9.146V43.978z"/>
	<path fill="#FFFFFF" d="M249.698,4.725l-2.478,9.896l-38.963,126.217c-0.837-3.854-1.651-7.722-2.4-11.658
		c-0.917-4.853-1.907-9.111-2.946-12.789L174.992,4.725H123.48L96.736,115.996c-0.266,1.586-0.854,4.66-1.771,9.248
		c-0.926,4.58-1.899,9.626-2.954,15.14c-0.089,0.455-0.176,0.869-0.258,1.32L50.424,4.202l-0.869,0.555l-0.008-0.032H0
		l61.732,206.84h50.738l24.38-98.715c2.357-9.168,4.257-17.289,5.698-24.372c1.449-7.083,2.559-12.982,3.34-17.691
		c0.789-4.724,1.191-8.007,1.191-9.834h2.358c0.78,4.451,1.763,9.834,2.945,16.121c1.184,6.286,2.488,12.58,3.929,18.882
		c1.433,6.286,2.688,11.92,3.734,16.895l23.591,98.715h50.737l61.345-206.84H249.698z"/>
	<path fill="#FFFFFF" d="M475.807,173.801c-2.882-2.094-4.33-5.627-4.33-10.608V65.676c0-13.899-3.026-25.69-9.048-35.397
		c-6.02-9.69-15.14-17.167-27.331-22.415C422.912,2.624,407.377,0,388.503,0c-16.516,0-31.067,2.294-43.646,6.881
		c-12.581,4.588-22.415,11.212-29.489,19.856c-7.084,8.652-10.625,18.874-10.625,30.673c0,1.843,0,3.42,0,4.716
		c0,1.32,0.137,2.631,0.403,3.936h46.399v-5.506c0-3.669,1.046-7.211,3.154-10.615c2.085-3.404,5.891-6.294,11.397-8.652
		c5.488-2.358,13.095-3.542,22.802-3.542c9.69,0,16.973,1.369,21.819,4.129c4.853,2.752,8.202,6.494,10.028,11.211
		c1.836,4.716,2.76,10.092,2.76,16.121v16.903c-18.874,0-36.25,1.126-52.098,3.347c-15.863,2.229-29.497,6.037-40.902,11.405
		c-11.405,5.376-20.258,12.716-26.544,22.021c-6.287,9.304-9.433,21.03-9.433,35.188c0,12.588,2.221,22.745,6.688,30.48
		c4.451,7.734,10.149,13.562,17.104,17.49c6.938,3.944,14.149,6.632,21.627,8.073c7.468,1.433,14.084,2.157,19.862,2.157
		c10.737,0,20.242-1.183,28.51-3.533c8.248-2.358,15.443-5.706,21.618-10.028c6.157-4.331,11.469-9.24,15.935-14.746h2.359
		c1.561,5.771,4.185,10.746,7.864,14.947c3.668,4.193,8.185,7.396,13.553,9.626c5.375,2.221,11.469,3.348,18.286,3.348
		c7.339,0,13.497-0.725,18.486-2.174c4.984-1.44,8.782-2.68,11.406-3.726v-33.032h-12.579
		C481.826,176.956,478.687,175.909,475.807,173.801z M423.506,128.584c0,7.083-1.118,13.634-3.348,19.663
		c-2.236,6.037-5.377,11.155-9.44,15.333c-4.064,4.202-9.175,7.468-15.332,9.834c-6.157,2.367-13.169,3.542-21.039,3.542
		c-6.825,0-12.509-0.981-17.095-2.954c-4.589-1.963-8.019-4.716-10.238-8.257c-2.223-3.542-3.333-7.671-3.333-12.388
		c0-9.176,3.599-16.25,10.817-21.232c7.204-4.973,16.91-8.386,29.096-10.221c12.193-1.835,25.48-2.753,39.912-2.753V128.584z"/>
</g>
</svg>
